:FULLY-SPECIFIED
:FORCE-ALL-JOINTS-BE-3DOF
:DEGREES
544
root 8.21371 13.976 -3.53701 -180.751 47.2765 -183.102
lfemur -33.4663 -5.83978 -16.4115
ltibia 88.5993 0 0
lfoot -39.1129 -10.4653 0
ltoes -5.66872 0 0
rfemur -48.7619 -7.71637 -3.44036
rtibia 63.9777 0 0
rfoot -10.3298 1.18059 0
rtoes -39.5665 0 0
lowerback 13.1691 1.07369 1.42648
upperback 7.00047 2.56328 7.08054
thorax -0.284393 1.56453 6.30366
lowerneck -2.22506 -16.0017 -6.09315
upperneck 9.26738 -21.726 8.62448
head 4.76404 -10.4878 2.23996
lclavicle -8.4056e-15 -1.13591e-14 0
lhumerus -45.3662 -12.6454 104.278
lradius 56.5865 0 0
lwrist 30.5215 0 0
lhand -24.7535 -2.85506 0
lfingers 7.12502 0 0
lthumb 1.74958 27.1175 0
rclavicle -8.4056e-15 -1.13591e-14 0
rhumerus 5.53776 17.7962 -90.2196
rradius 135.883 0 0
rwrist -46.441 0 0
rhand -30.5211 -24.1051 0
rfingers 7.12502 0 0
rthumb -3.82058 -774.046 0
545
root 8.25667 13.9588 -3.50789 -180.718 46.9834 -183.024
lfemur -33.5265 -5.85525 -15.9595
ltibia 88.7131 0 0
lfoot -39.2721 -11.4262 0
ltoes -4.98022 0 0
rfemur -48.8745 -7.85442 -3.24353
rtibia 64.4928 0 0
rfoot -10.472 0.87365 0
rtoes -39.4086 0 0
lowerback 13.1081 0.917309 1.50507
upperback 6.99115 2.35597 6.98878
thorax -0.233518 1.46163 6.19021
lowerneck -2.09379 -15.8807 -5.98913
upperneck 8.9124 -21.563 8.68607
head 4.6166 -10.4212 2.28658
lclavicle 2.7262e-14 -5.45238e-15 0
lhumerus -45.5808 -12.1586 103.863
lradius 56.1307 0 0
lwrist 30.878 0 0
lhand -24.7182 -2.78484 0
lfingers 7.12502 0 0
lthumb 1.78371 27.1874 0
rclavicle 2.7262e-14 -5.45238e-15 0
rhumerus 5.72049 18.4542 -89.9401
rradius 135.495 0 0
rwrist -45.8911 0 0
rhand -30.1017 -23.6851 0
rfingers 7.12502 0 0
rthumb -3.41562 -773.634 0
546
root 8.29964 13.9417 -3.47878 -180.686 46.6904 -182.946
lfemur -33.5867 -5.87072 -15.5076
ltibia 88.8269 0 0
lfoot -39.4314 -12.3872 0
ltoes -4.29173 0 0
rfemur -48.9871 -7.99247 -3.0467
rtibia 65.008 0 0
rfoot -10.6143 0.566714 0
rtoes -39.2508 0 0
lowerback 13.047 0.76093 1.58366
upperback 6.98182 2.14867 6.89703
thorax -0.182642 1.35872 6.07676
lowerneck -1.96252 -15.7598 -5.88511
upperneck 8.55742 -21.4 8.74767
head 4.46916 -10.3547 2.33321
lclavicle 6.29296e-14 4.54366e-16 0
lhumerus -45.7954 -11.6719 103.447
lradius 55.675 0 0
lwrist 31.2344 0 0
lhand -24.6828 -2.71462 0
lfingers 7.12502 0 0
lthumb 1.81784 27.2574 0
rclavicle 6.29296e-14 4.54366e-16 0
rhumerus 5.90321 19.1122 -89.6605
rradius 135.108 0 0
rwrist -45.3413 0 0
rhand -29.6824 -23.2651 0
rfingers 7.12502 0 0
rthumb -3.01066 -773.221 0
547
root 8.3426 13.9245 -3.44966 -180.653 46.3973 -182.868
lfemur -33.6469 -5.88619 -15.0556
ltibia 88.9407 0 0
lfoot -39.5906 -13.3481 0
ltoes -3.60323 0 0
rfemur -49.0997 -8.13052 -2.84987
rtibia 65.5231 0 0
rfoot -10.7566 0.259778 0
rtoes -39.0929 0 0
lowerback 12.986 0.604552 1.66225
upperback 6.9725 1.94136 6.80527
thorax -0.131767 1.25582 5.96331
lowerneck -1.83125 -15.6388 -5.78109
upperneck 8.20244 -21.237 8.80926
head 4.32172 -10.2881 2.37983
lclavicle 9.85972e-14 6.36111e-15 0
lhumerus -46.01 -11.1851 103.032
lradius 55.2192 0 0
lwrist 31.5909 0 0
lhand -24.6475 -2.6444 0
lfingers 7.12502 0 0
lthumb 1.85197 27.3273 0
rclavicle 9.85972e-14 6.36111e-15 0
rhumerus 6.08594 19.7702 -89.381
rradius 134.72 0 0
rwrist -44.7914 0 0
rhand -29.263 -22.8451 0
rfingers 7.12502 0 0
rthumb -2.6057 -772.809 0
